<?xml version="1.0" encoding="UTF-8"?>
<!DOCTYPE svg PUBLIC "-//W3C//DTD SVG 1.1//EN" "http://www.w3.org/Graphics/SVG/1.1/DTD/svg11.dtd">
<!-- Creator: CorelDRAW X7 -->
<svg xmlns="http://www.w3.org/2000/svg" xml:space="preserve" width="840.59mm" height="70.8985mm" version="1.1" style="shape-rendering:geometricPrecision; text-rendering:geometricPrecision; image-rendering:optimizeQuality; fill-rule:evenodd; clip-rule:evenodd"
viewBox="0 0 13640 1150"
 xmlns:xlink="http://www.w3.org/1999/xlink">
 <defs>
  <style type="text/css">
   <![CDATA[
    .fil1 {fill:#FEFEFE}
    .fil0 {fill:#FEFEFE;fill-rule:nonzero}
   ]]>
  </style>
 </defs>
 <g id="图层_x0020_1">
  <metadata id="CorelCorpID_0Corel-Layer"/>
  <g>
   <path class="fil0" d="M1821 193c49,-36 114,-60 200,-60l0 0 464 0 10 0 -2 9 -28 175 -1 7 -7 0 -445 0 0 0 -7 0c-19,1 -35,7 -45,16 -6,5 -11,11 -13,18 -2,6 -1,13 2,20 4,11 13,21 30,31l307 181 1 0 0 0c34,26 63,49 82,79 19,31 28,69 19,122 -9,59 -40,122 -100,167 -47,35 -113,59 -201,60l0 0 -464 0 -10 0 2 -10 28 -174 1 -7 7 0 446 0 0 0 6 -1c18,0 34,-7 45,-16 7,-5 11,-12 13,-18 2,-7 2,-14 0,-21 -4,-9 -12,-18 -26,-26l-312 -184 -1 0 0 0c-34,-26 -64,-49 -83,-80 -19,-31 -28,-68 -19,-122 9,-58 42,-121 101,-166zm-1799 384l0 0 0 0zm408 440l-1 0 0 0 0 0 0 0 -1 0 0 0c-2,0 -3,0 -4,0l-3 0 -1 0c-1,0 -2,0 -3,0l0 0c-26,-1 -51,-3 -75,-7 -103,-17 -189,-64 -250,-130 -60,-67 -94,-153 -92,-249 0,-19 2,-37 5,-56l0 0 0 -1 0 0 0 0 0 0 0 0 0 0c20,-120 91,-228 191,-308 100,-79 228,-129 363,-132l0 0c0,0 1,0 2,0l2 0 2 0c1,0 3,0 4,0l0 0 1 0 0 0 1 0 1 0 0 0 20 0 210 0 9 0 0 0 2 0 -2 10 -29 174 -1 7 -7 0 -223 0 0 0c-75,3 -152,32 -214,78 -59,44 -103,102 -116,166l0 0 -1 4c0,1 0,2 0,4l0 0 0 0 0 0 0 0 0 0c-1,1 -1,2 -1,3 0,3 0,4 0,4l0 0c-1,6 -2,12 -2,17 -2,57 23,109 63,148 40,39 97,67 160,74 8,2 17,2 26,3l0 0 224 0 9 0 -1 9 -28 175 -1 7 -2 0 0 0 -7 0 -209 0 -21 0 0 0zm2499 -2l0 0 -196 0 -10 0 1 -9 29 -175 27 -170 28 -174 28 -170 28 -174 1 -7 7 0 196 0 231 0 11 0c13,-1 25,-1 37,0 12,1 23,2 34,4 64,10 118,39 155,81 37,43 57,97 54,157 0,9 -1,18 -3,26 -5,34 -17,66 -35,95 -16,29 -38,55 -63,77 18,22 35,47 47,75 13,30 19,63 14,98 -11,68 -46,130 -96,177 -49,46 -113,78 -186,87 -23,2 -46,2 -69,2 -4,0 -9,0 -14,0l-256 0zm63 -344l-25 153c39,0 85,0 130,0 62,0 114,0 139,0 24,0 48,-9 66,-23 18,-14 31,-34 35,-55 0,-3 0,-7 0,-11 0,-15 -5,-30 -16,-41 -10,-11 -25,-18 -42,-21 -5,-1 -10,-1 -16,-1 -63,0 -168,-1 -254,-1l-17 0zm55 -344l-24 153 40 0c75,-1 155,-1 211,-1 24,0 48,-9 66,-23 18,-14 31,-33 34,-54 0,-2 1,-5 1,-7 0,-17 -11,-33 -25,-45 -15,-12 -32,-20 -44,-22 -2,-1 -4,-1 -5,-1l-254 0zm-410 688l-196 0 -10 0 2 -9 139 -863 1 -7 7 0 197 0 10 0 -2 9 -140 863 -1 7 -7 0zm-1682 2l-196 0 -10 0 2 -10 140 -866 1 -7 7 0 194 0 6 -2 1 2 5 0 -1 7 277 506 82 -506 1 -7 7 0 196 0 10 0 -1 10 -141 866 -1 7 -7 0 -196 0 -10 0 1 -7 -277 -506 -82 506 -1 7 -7 0z"/>
  </g>
  <path class="fil1" d="M3919 0c0,0 64,56 136,56 109,0 231,-36 342,-36 112,0 229,36 338,36 72,0 136,-56 136,-56 9,69 -54,141 -120,145 0,0 26,31 52,78 30,52 58,148 76,258 46,-31 79,-97 65,-133 0,0 81,63 61,127 42,25 47,60 28,100 62,39 -38,175 -59,194 -21,18 -51,43 -83,61 -15,131 -59,243 -148,286 -85,41 -98,30 -175,33 -2,-41 -11,-52 -23,-52 -12,0 -22,12 -24,53l-10 0c-2,-41 -12,-53 -23,-53 -12,0 -22,12 -24,53 -20,-1 -45,0 -69,0 -24,0 -48,-1 -69,0 -2,-41 -11,-53 -23,-53 -12,0 -22,12 -24,53l-10 0c-2,-41 -12,-53 -23,-53 -12,0 -22,11 -24,52 -77,-3 -89,8 -174,-33 -89,-43 -133,-155 -149,-286 -31,-18 -61,-43 -82,-61 -22,-19 -122,-155 -59,-194 -20,-40 -15,-75 27,-100 -20,-64 62,-127 62,-127 -15,36 19,102 64,133 18,-110 47,-206 76,-258 26,-47 52,-78 52,-78 -65,-4 -129,-76 -120,-145zm678 356c17,0 33,8 45,20 -15,2 -27,15 -27,31 0,18 14,32 31,32 7,0 13,-2 18,-5 -1,40 -31,73 -67,73 -38,0 -68,-34 -68,-75 0,-42 30,-76 68,-76zm-403 0c18,0 33,8 45,20 -15,2 -27,15 -27,31 0,18 14,32 32,32 6,0 12,-2 17,-5 -1,40 -30,73 -67,73 -37,0 -67,-34 -67,-75 0,-42 30,-76 67,-76zm278 223l-75 159 -78 -159c98,-121 64,-109 153,0zm129 -339c205,1 192,399 -21,375 -173,-20 -175,-375 21,-375zm-411 0c-206,1 -192,399 20,375 174,-20 176,-375 -20,-375z"/>
  <path class="fil1" d="M5237 544c-2,11 -1,20 4,29 4,9 10,17 18,22 8,5 18,8 29,8l637 0c11,0 22,-3 31,-8 10,-5 18,-13 25,-22 7,-9 11,-18 12,-29l45 -325c2,-11 1,-21 -3,-30 -4,-9 -11,-16 -19,-22 -8,-5 -18,-8 -29,-8l-638 0c-10,0 -21,3 -30,8 -10,6 -18,13 -25,22 -7,9 -11,19 -12,30l-45 325zm294 396c-10,0 -18,-4 -23,-10 -5,-6 -8,-14 -6,-24l35 -257 -136 0 -40 282c-1,12 0,22 4,31 4,9 11,16 19,21 8,6 18,8 28,8l384 0 7 -51 -272 0zm-262 28c14,-29 26,-59 37,-92 11,-31 20,-64 29,-99 9,-35 16,-71 23,-107l-131 0c-11,55 -25,108 -41,158 -15,49 -33,97 -54,140l137 0zm711 -5c-11,-42 -18,-88 -22,-135 -4,-49 -5,-100 -3,-154l-135 0c-2,54 -2,105 2,154 5,47 13,93 23,135l135 0zm-221 -99c-7,-34 -12,-70 -15,-108 -2,-39 -2,-78 -1,-121l-135 0c-2,43 -2,82 1,121 3,38 7,74 14,108l136 0zm-345 -620c1,-9 6,-17 13,-24 7,-6 16,-10 26,-10l140 0 -20 146 -175 0 16 -112zm469 112l-174 0 21 -146 139 0c10,0 17,4 23,10 5,7 8,15 6,24l-15 112zm-478 196c-10,0 -17,-4 -23,-10 -5,-6 -7,-14 -6,-24l15 -111 175 0 -21 145 -140 0zm277 0l20 -145 174 0 -16 111c-1,10 -6,18 -13,24 -7,6 -16,10 -26,10l-139 0z"/>
  <path class="fil1" d="M6956 670l41 -295c1,-11 0,-21 -5,-30 -4,-9 -11,-16 -19,-22 -10,-5 -20,-8 -32,-8l-130 0 6 -44 206 0 7 -52 -26 0 -2 -61 -130 0 1 61 -49 0 10 -72 -140 0 -10 72 -206 0 -8 52 207 0 -6 44 -131 0c-12,0 -23,3 -33,8 -10,6 -19,13 -25,22 -7,9 -11,19 -13,30l-41 295 134 0 9 -64 59 0 -9 67 140 0 9 -67 62 0 -9 64 133 0zm-673 332l79 -567 71 0 7 -52 -71 0 33 -236 -143 0 -33 236 -71 0 -7 52 71 0 -79 567 143 0zm364 1l157 0c12,0 22,-2 33,-8 9,-5 18,-12 25,-21 7,-9 11,-19 12,-31l22 -154 55 0 7 -52 -55 0 6 -44 -142 0 -6 44 -356 0 -7 52 356 0 -18 129c-1,6 -4,13 -7,17 -4,6 -9,10 -15,13 -6,2 -12,4 -19,4l-41 0 -7 51zm-32 -34l-36 -142 -133 0 38 142 131 0zm240 -530l-61 0 10 -73 30 0c10,0 18,3 22,8 5,5 6,12 5,22l-6 43zm-255 -43c2,-10 5,-17 10,-22 7,-5 14,-8 24,-8l30 0 -10 73 -60 0 6 -43zm186 95l62 0 -9 64 -61 0 8 -64zm-199 0l59 0 -9 64 -59 0 9 -64z"/>
  <path class="fil1" d="M7067 938c-2,11 0,21 4,30 4,9 10,16 18,22 8,5 19,8 30,8l641 0c12,0 22,-3 32,-8 10,-6 18,-13 25,-22 6,-9 10,-19 12,-30l28 -201c1,-12 0,-22 -4,-31 -4,-9 -10,-16 -19,-21 -8,-6 -17,-8 -29,-8l-642 0c-10,0 -22,2 -31,8 -10,5 -18,12 -25,21 -7,9 -11,19 -12,31l-28 201zm485 -356c-1,11 0,21 4,30 4,9 10,16 18,22 8,5 18,8 28,8l251 0c12,0 22,-3 32,-8 9,-6 17,-13 23,-22 7,-9 11,-19 13,-30l45 -329c2,-10 1,-20 -4,-29 -4,-10 -9,-17 -17,-23 -8,-5 -18,-8 -29,-8l-251 0c-11,0 -21,3 -31,8 -10,6 -17,13 -24,23 -6,9 -11,19 -12,29l-46 329zm-463 -123l131 0c-20,31 -42,61 -68,91 -26,31 -55,61 -88,92l152 0c17,-15 33,-30 48,-46 15,-16 30,-34 44,-52 7,18 14,36 23,52 9,16 18,31 29,46l152 0c-22,-31 -41,-61 -56,-92 -15,-30 -26,-60 -33,-91l114 0 7 -51 -155 0c11,-23 21,-47 30,-71 9,-24 18,-49 26,-75l120 0 7 -52 -279 0c4,-10 7,-19 10,-28 3,-9 7,-19 10,-29l-120 0c-10,33 -23,66 -37,99 -14,32 -32,65 -51,98l119 0c9,-15 18,-28 26,-44 8,-14 16,-29 22,-44l41 0c-9,26 -19,51 -30,75 -10,24 -21,48 -34,71l-152 0 -8 51zm607 453c-2,10 -6,18 -13,24 -8,7 -16,10 -26,10l-422 0c-9,0 -17,-3 -22,-10 -6,-6 -8,-14 -7,-24l7 -49 490 0 -7 49zm-469 -150c1,-10 6,-18 13,-24 7,-6 16,-10 26,-10l421 0c10,0 18,4 23,10 6,6 8,14 7,24l-7 50 -490 0 7 -50zm558 -189c0,6 -3,9 -6,13 -4,3 -8,4 -13,4l-62 0c-6,0 -9,-1 -12,-4 -2,-4 -4,-7 -3,-13l44 -311c0,-5 3,-9 6,-12 4,-4 8,-6 13,-6l62 0c5,0 9,2 12,6 2,3 3,7 3,12l-44 311z"/>
  <path class="fil1" d="M8582 1001l165 0c11,0 20,-3 29,-8 9,-5 16,-12 22,-21 6,-9 10,-18 11,-30l111 -792 -126 0 -107 765c-1,10 -5,19 -12,25 -6,6 -15,10 -24,10l-62 0 -7 51zm62 -109l93 -665 -126 0 -93 665 126 0zm-456 -450c15,-15 30,-32 45,-51 15,-18 30,-38 45,-57 15,-19 27,-38 39,-55 6,17 15,36 24,55 10,19 20,39 31,57 10,19 21,36 31,51l149 0c-31,-46 -60,-93 -83,-143 -25,-48 -47,-99 -66,-150l-135 0c-34,51 -70,102 -108,150 -37,50 -79,97 -123,143l151 0zm-189 501c-2,11 -1,20 4,29 4,9 10,16 18,21 8,6 18,8 29,8l424 0 7 -50 -313 0c-10,0 -17,-4 -23,-10 -5,-6 -7,-14 -6,-24l49 -351c1,-10 6,-18 13,-24 7,-6 16,-10 26,-10l121 0c10,0 17,4 23,10 5,6 8,14 6,24l-24 176c-2,10 -6,18 -13,25 -8,6 -16,10 -26,10l-99 0 -7 51 209 0c12,0 22,-3 32,-8 10,-6 18,-13 25,-22 6,-8 10,-19 12,-30l32 -228c1,-12 0,-21 -4,-30 -4,-9 -11,-16 -19,-21 -8,-5 -18,-8 -29,-8l-344 0c-10,0 -22,3 -30,8 -10,5 -18,12 -25,21 -7,9 -11,18 -12,30l-56 403z"/>
  <path class="fil1" d="M9678 232l3585 0c207,0 377,169 377,376l0 0c0,207 -170,376 -377,376l-3585 0c-207,0 -376,-169 -376,-376l0 0c0,-207 169,-376 376,-376zm292 135c-34,-1 -50,13 -49,42l0 220c2,90 -8,156 -28,200 -6,15 -2,25 13,29 13,1 22,-5 28,-20 18,-35 27,-83 29,-143l165 0 0 137c0,10 7,16 22,17 13,-1 20,-7 20,-17l0 -137 165 0 0 104c5,30 -22,35 -84,15 -12,-3 -20,2 -26,15 -2,14 3,22 15,27 90,23 135,9 136,-44l0 -403c0,-28 -13,-42 -39,-42l-367 0zm-7 58c0,-11 7,-16 22,-16l143 0 0 104 -165 0 0 -88zm207 -16l145 0c13,0 20,5 20,16l0 88 -165 0 0 -104zm-207 145l165 0 0 99 -165 0 0 -99zm207 0l165 0 0 99 -165 0 0 -99zm696 -149c-35,-2 -51,12 -48,42l0 118c0,71 -3,125 -9,163 -6,40 -17,77 -35,112 -7,16 -4,28 9,36 13,4 24,-2 33,-18 31,-60 47,-147 48,-262l363 0c28,2 41,-10 40,-35l0 -121c1,-25 -12,-37 -40,-35l-160 0c-8,-21 -16,-38 -25,-53 -7,-13 -17,-18 -30,-13 -14,9 -17,20 -11,33 2,4 5,11 8,20 3,6 5,10 7,13l-150 0zm337 44c13,-2 19,4 18,17l0 69c0,11 -6,17 -16,17l-341 0 0 -88c-1,-12 4,-17 16,-15l323 0zm727 -95c-1,-11 -8,-17 -22,-17 -14,0 -22,6 -24,17l0 66 -160 0c-41,-3 -61,17 -60,60l0 191c-1,40 17,59 55,57l165 0 0 130c0,13 7,20 22,22 15,0 23,-7 24,-20l0 -132 179 0c38,2 56,-18 55,-59l0 -189c0,-41 -19,-61 -55,-60l-179 0 0 -66zm-220 130c0,-13 5,-19 16,-18l158 0 0 214 -156 0c-13,1 -19,-4 -18,-16l0 -180zm220 -18l170 0c13,0 19,6 17,16l0 182c0,11 -5,16 -15,16l-172 0 0 -214zm873 -90c-7,-14 -18,-20 -33,-17 -13,7 -17,19 -11,35 31,72 52,162 64,270 1,16 10,24 26,22 13,-3 20,-12 20,-28 -10,-97 -32,-191 -66,-282zm-99 40c0,-13 -7,-21 -20,-22 -14,1 -22,9 -22,22l0 352c-3,57 30,85 99,83l82 0c49,2 80,-8 92,-28 16,-21 23,-65 20,-134 -2,-12 -10,-19 -24,-20 -14,0 -21,6 -22,17 0,58 -4,93 -12,106 -4,13 -20,19 -48,18l-94 0c-36,1 -53,-20 -51,-64l0 -330zm-92 55c0,-18 -8,-27 -22,-29 -15,2 -23,10 -25,27 2,111 -11,214 -39,308 -3,14 3,24 17,30 14,0 23,-6 29,-19 25,-106 38,-212 40,-317zm365 -35c-8,-15 -19,-19 -33,-14 -13,8 -17,19 -11,33 38,85 61,190 70,315 2,18 10,27 27,29 16,-3 23,-14 22,-31 -11,-128 -36,-239 -75,-332z"/>
 </g>
</svg>
